<svg width="91" height="32" viewBox="0 0 91 32" fill="none" xmlns="http://www.w3.org/2000/svg">
<g clip-path="url(#clip0_266_2688)">
<path fill-rule="evenodd" clip-rule="evenodd" d="M23.8631 0H0.0117188V9.6998H23.8631V0ZM70.1418 0H91.2347V12.9592H70.1418V0ZM70.1418 14.8469H91.2347V31.3496H70.1418V14.8469ZM0.112656 31.3795V14.873H6.65021V27.1295H9.491L12.5336 31.3795H0.112656ZM59.4365 14.873H66.2993L59.9897 23.044L65.9741 31.3795H58.7824L53.5531 24.3261V31.3795H47.3445V14.873H53.5531V21.8778L59.4365 14.873ZM18.8058 14.4357C13.8269 14.4357 9.79375 18.368 9.79375 23.2197C9.79375 28.0715 13.8307 32.0037 18.8058 32.0037C23.7809 32.0037 27.8178 28.0715 27.8178 23.2197C27.8178 18.368 23.7809 14.4357 18.8058 14.4357ZM18.8058 26.6847C17.1462 26.6847 15.8005 25.1335 15.8005 23.2197C15.8005 21.3059 17.1462 19.7547 18.8058 19.7547C20.4654 19.7547 21.811 21.3059 21.811 23.2197C21.811 25.1335 20.4654 26.6847 18.8058 26.6847ZM28.4046 23.2197C28.4046 18.368 32.4378 14.4357 37.4167 14.4357C42.3918 14.4357 46.4287 18.368 46.4287 23.2197C46.4287 28.0715 42.3918 32.0037 37.4167 32.0037C32.4416 32.0037 28.4046 28.0715 28.4046 23.2197ZM34.4114 23.2197C34.4114 25.1335 35.7571 26.6847 37.4167 26.6847C39.0763 26.6847 40.4219 25.1335 40.4219 23.2197C40.4219 21.3059 39.0763 19.7547 37.4167 19.7547C35.7571 19.7547 34.4114 21.3059 34.4114 23.2197ZM25.777 0H68.2505V9.6998H25.777V0Z" fill="white"/>
<path fill-rule="evenodd" clip-rule="evenodd" d="M23.8631 0H0.0117188V9.6998H23.8631V0ZM70.1418 0H91.2347V12.9592H70.1418V0ZM70.1418 14.8469H91.2347V31.3496H70.1418V14.8469ZM0.112656 31.3795V14.873H6.65021V27.1295H9.491L12.5336 31.3795H0.112656ZM59.4365 14.873H66.2993L59.9897 23.044L65.9741 31.3795H58.7824L53.5531 24.3261V31.3795H47.3445V14.873H53.5531V21.8778L59.4365 14.873ZM18.8058 14.4357C13.8269 14.4357 9.79375 18.368 9.79375 23.2197C9.79375 28.0715 13.8307 32.0037 18.8058 32.0037C23.7809 32.0037 27.8178 28.0715 27.8178 23.2197C27.8178 18.368 23.7809 14.4357 18.8058 14.4357ZM18.8058 26.6847C17.1462 26.6847 15.8005 25.1335 15.8005 23.2197C15.8005 21.3059 17.1462 19.7547 18.8058 19.7547C20.4654 19.7547 21.811 21.3059 21.811 23.2197C21.811 25.1335 20.4654 26.6847 18.8058 26.6847ZM28.4046 23.2197C28.4046 18.368 32.4378 14.4357 37.4167 14.4357C42.3918 14.4357 46.4287 18.368 46.4287 23.2197C46.4287 28.0715 42.3918 32.0037 37.4167 32.0037C32.4416 32.0037 28.4046 28.0715 28.4046 23.2197ZM34.4114 23.2197C34.4114 25.1335 35.7571 26.6847 37.4167 26.6847C39.0763 26.6847 40.4219 25.1335 40.4219 23.2197C40.4219 21.3059 39.0763 19.7547 37.4167 19.7547C35.7571 19.7547 34.4114 21.3059 34.4114 23.2197ZM25.777 0H68.2505V9.6998H25.777V0Z" fill="black" fill-opacity="0.1"/>
</g>
<defs>
<clipPath id="clip0_266_2688">
<rect width="90.88" height="32" fill="white"/>
</clipPath>
</defs>
</svg>
